# xmcd CD database file
#
# Track frame offsets:
#	150
#	29026
#	73038
#	107415
#	139157
#	169439
#	208410
#	232684
#	277439
#	302174
#
# Disc length: 4311 seconds
#
# Revision: 0
# Processed by: cddbd v1.5.1PL0 Copyright (c) Steve Scherf et al.
# Submitted via: CDex 1.51
#
DISCID=9d10d50a
DTITLE=Achim Kaufmann Trio - Weave
DYEAR=1997
DGENRE=Jazz
TTITLE0=Ritual
TTITLE1=The Night Sky Is A Rock
TTITLE2=Hidden Sevens-Thinking Backwards 
TTITLE3=Three Thimbles
TTITLE4=Asking For Trouble
TTITLE5=Carnies
TTITLE6=Redmm Saat
TTITLE7=The Sinners' March
TTITLE8=Koen
TTITLE9=The Embalmers' Waltz
EXTD=YEAR: 1997
EXTT0=
EXTT1=
EXTT2=
EXTT3=
EXTT4=
EXTT5=
EXTT6=
EXTT7=
EXTT8=
EXTT9=
PLAYORDER=
